<svg width="1456" height="286" viewBox="0 0 1456 286" fill="none" xmlns="http://www.w3.org/2000/svg">
<rect x="142.597" y="91.43" width="104.086" height="104.086" rx="26" fill="#171928"/>
<rect x="228.947" y="92.9772" width="57" height="23" transform="rotate(-45 228.947 92.9772)" fill="#171928"/>
<circle cx="301.175" cy="36.43" r="26.43" stroke="#5A66CF" stroke-width="20"/>
<rect x="244.139" y="177.313" width="57" height="23" transform="rotate(45 244.139 177.313)" fill="#171928"/>
<circle cx="300.686" cy="249.541" r="26.43" transform="rotate(90 300.686 249.541)" stroke="#5A66CF" stroke-width="20"/>
<rect x="143" y="154" width="57" height="23" transform="rotate(180 143 154)" fill="#171928"/>
<circle cx="51.52" cy="142.921" r="26.43" transform="rotate(-135 51.52 142.921)" stroke="#5A66CF" stroke-width="20"/>
<path d="M461.2 240V71.44H401V44H551.64V71.44H491.44V240H461.2ZM630.099 243.92C616.099 243.92 603.872 241.027 593.419 235.24C582.966 229.267 574.752 220.96 568.779 210.32C562.992 199.493 560.099 186.987 560.099 172.8V169.44C560.099 155.067 562.992 142.56 568.779 131.92C574.566 121.093 582.592 112.787 592.859 107C603.312 101.027 615.352 98.04 628.979 98.04C642.232 98.04 653.806 101.027 663.699 107C673.779 112.787 681.619 120.907 687.219 131.36C692.819 141.813 695.619 154.04 695.619 168.04V178.96H589.499C589.872 191.093 593.886 200.8 601.539 208.08C609.379 215.173 619.086 218.72 630.659 218.72C641.486 218.72 649.606 216.293 655.019 211.44C660.619 206.587 664.912 200.987 667.899 194.64L691.699 206.96C689.086 212.187 685.259 217.693 680.219 223.48C675.366 229.267 668.926 234.12 660.899 238.04C652.872 241.96 642.606 243.92 630.099 243.92ZM589.779 156.84H666.219C665.472 146.387 661.739 138.267 655.019 132.48C648.299 126.507 639.526 123.52 628.699 123.52C617.872 123.52 609.006 126.507 602.099 132.48C595.379 138.267 591.272 146.387 589.779 156.84ZM808.455 243.92C795.201 243.92 783.161 241.12 772.335 235.52C761.695 229.92 753.201 221.8 746.855 211.16C740.695 200.52 737.615 187.733 737.615 172.8V169.16C737.615 154.227 740.695 141.533 746.855 131.08C753.201 120.44 761.695 112.32 772.335 106.72C783.161 100.933 795.201 98.04 808.455 98.04C821.708 98.04 833.001 100.467 842.335 105.32C851.668 110.173 859.135 116.613 864.735 124.64C870.521 132.667 874.255 141.533 875.935 151.24L847.935 157.12C847.001 150.96 845.041 145.36 842.055 140.32C839.068 135.28 834.868 131.267 829.455 128.28C824.041 125.293 817.228 123.8 809.015 123.8C800.988 123.8 793.708 125.667 787.175 129.4C780.828 132.947 775.788 138.173 772.055 145.08C768.321 151.8 766.455 160.013 766.455 169.72V172.24C766.455 181.947 768.321 190.253 772.055 197.16C775.788 204.067 780.828 209.293 787.175 212.84C793.708 216.387 800.988 218.16 809.015 218.16C821.148 218.16 830.388 215.08 836.735 208.92C843.081 202.573 847.095 194.547 848.775 184.84L876.775 191.28C874.535 200.8 870.521 209.573 864.735 217.6C859.135 225.627 851.668 232.067 842.335 236.92C833.001 241.587 821.708 243.92 808.455 243.92ZM924.038 240V44H952.878V121.56H957.358C959.224 118.013 961.838 114.56 965.198 111.2C968.744 107.84 973.318 105.133 978.918 103.08C984.704 100.84 991.984 99.72 1000.76 99.72C1011.21 99.72 1020.45 102.053 1028.48 106.72C1036.69 111.387 1043.13 118.013 1047.8 126.6C1052.46 135 1054.8 145.173 1054.8 157.12V240H1025.96V159.36C1025.96 147.413 1022.97 138.64 1017 133.04C1011.02 127.253 1002.81 124.36 992.358 124.36C980.411 124.36 970.798 128.28 963.518 136.12C956.424 143.96 952.878 155.347 952.878 170.28V240H924.038ZM1161.04 242.52C1150.58 242.52 1141.25 240.187 1133.04 235.52C1124.82 230.853 1118.38 224.227 1113.72 215.64C1109.05 207.053 1106.72 196.787 1106.72 184.84V101.96H1135.56V182.88C1135.56 194.827 1138.54 203.693 1144.52 209.48C1150.49 215.08 1158.8 217.88 1169.44 217.88C1181.2 217.88 1190.62 213.96 1197.72 206.12C1205 198.093 1208.64 186.613 1208.64 171.68V101.96H1237.48V240H1209.2V219.28H1204.72C1202.1 224.88 1197.44 230.2 1190.72 235.24C1184 240.093 1174.1 242.52 1161.04 242.52ZM1373.91 243.92C1360.47 243.92 1350.11 241.493 1342.83 236.64C1335.73 231.787 1330.41 226.373 1326.87 220.4H1322.39V240H1294.11V44H1322.95V120.72H1327.43C1329.67 116.987 1332.65 113.44 1336.39 110.08C1340.12 106.533 1345.07 103.64 1351.23 101.4C1357.39 99.16 1364.95 98.04 1373.91 98.04C1385.48 98.04 1396.12 100.84 1405.83 106.44C1415.53 112.04 1423.28 120.16 1429.07 130.8C1434.85 141.44 1437.75 154.133 1437.75 168.88V173.08C1437.75 188.013 1434.76 200.8 1428.79 211.44C1423 221.893 1415.25 229.92 1405.55 235.52C1396.03 241.12 1385.48 243.92 1373.91 243.92ZM1365.51 218.72C1378.01 218.72 1388.28 214.707 1396.31 206.68C1404.52 198.653 1408.63 187.173 1408.63 172.24V169.72C1408.63 154.973 1404.61 143.587 1396.59 135.56C1388.56 127.533 1378.2 123.52 1365.51 123.52C1353.19 123.52 1342.92 127.533 1334.71 135.56C1326.68 143.587 1322.67 154.973 1322.67 169.72V172.24C1322.67 187.173 1326.68 198.653 1334.71 206.68C1342.92 214.707 1353.19 218.72 1365.51 218.72Z" fill="#171928"/>
</svg>
